<?xml version="1.0" encoding="UTF-8"?>
<svg id="Layer_2" data-name="Layer 2" xmlns="http://www.w3.org/2000/svg" viewBox="0 0 385.73 385.73">
  <defs>
    <style>
      .cls-1 {
        fill: #009245;
      }

      .cls-2 {
        fill: #fff;
      }

      .cls-3 {
        fill: #a3d165;
      }
    </style>
  </defs>
  <g id="_Ñëîé_1" data-name="Ñëîé 1">
    <g>
      <path class="cls-3" d="M385.73,192.86c0,200.84-12.84,192.82-192.86,192.82S0,393.71,0,192.86,12.84.04,192.86.04s192.86-8.03,192.86,192.82Z"/>
      <path class="cls-1" d="M281.9,40.27l5.91,26.17c.51,2.27,3.11,3.34,5.08,2.1l22.68-14.32c4.47-2.82,9.66,2.37,6.84,6.84l-14.32,22.68c-1.24,1.96-.16,4.57,2.1,5.08l26.17,5.91c5.15,1.16,5.15,8.51,0,9.67l-26.17,5.91c-2.27.51-3.34,3.11-2.1,5.08l14.32,22.68c2.82,4.47-2.37,9.66-6.84,6.84l-22.68-14.32c-1.96-1.24-4.57-.16-5.08,2.1l-5.91,26.17c-1.16,5.15-8.51,5.15-9.67,0l-5.91-26.17c-.51-2.27-3.11-3.34-5.08-2.1l-22.68,14.32c-4.47,2.82-9.66-2.37-6.84-6.84l14.32-22.68c1.24-1.96.16-4.57-2.1-5.08l-26.17-5.91c-5.15-1.16-5.15-8.51,0-9.67l26.17-5.91c2.27-.51,3.34-3.11,2.1-5.08l-14.32-22.68c-2.82-4.47,2.37-9.66,6.84-6.84l22.68,14.32c1.96,1.24,4.57.16,5.08-2.1l5.91-26.17c1.16-5.15,8.51-5.15,9.67,0Z"/>
      <g>
        <polygon class="cls-2" points="82.53 331.36 95.45 331.36 95.45 304.75 119.99 304.75 119.99 292.95 95.45 292.95 95.45 277.1 124.9 277.1 124.9 265.3 82.53 265.3 82.53 331.36"/>
        <path class="cls-2" d="M144.53,292.78v-8.61h-12.46v47.18h12.46v-24.82c0-2.45.79-4.47,2.36-6.04,1.57-1.57,3.63-2.7,6.18-3.4,2.55-.69,5.27-1.04,8.16-1.04v-12.08c-3.4,0-6.65.82-9.77,2.45-2.76,1.45-5.07,3.56-6.94,6.34Z"/>
        <path class="cls-2" d="M209.69,295.83c-2.11-4.18-4.91-7.36-8.4-9.53-3.49-2.17-7.31-3.26-11.47-3.26-4.78,0-9.01,1.05-12.69,3.16-3.68,2.11-6.57,5.02-8.68,8.73-2.11,3.71-3.16,7.99-3.16,12.83s1.02,9.12,3.07,12.83c2.04,3.71,4.86,6.62,8.45,8.73,3.59,2.11,7.71,3.16,12.36,3.16,3.71,0,7.01-.5,9.91-1.51,2.89-1,5.39-2.47,7.5-4.39,2.11-1.92,3.82-4.2,5.14-6.84l-11.14-4.34c-.88,1.76-2.14,3.19-3.78,4.29-1.64,1.1-3.74,1.65-6.32,1.65-2.14,0-4.14-.46-5.99-1.37-1.86-.91-3.37-2.23-4.53-3.96-.97-1.44-1.51-3.1-1.67-4.95h34.56c0-5.98-1.05-11.06-3.16-15.24ZM184.82,294.56c1.64-.63,3.18-.94,4.62-.94s2.94.32,4.48.94c1.54.63,2.85,1.62,3.92,2.97.88,1.12,1.38,2.56,1.53,4.29h-20.43c.17-1.74.71-3.18,1.67-4.29,1.16-1.35,2.56-2.34,4.2-2.97Z"/>
        <path class="cls-2" d="M251.49,306.59c-1.86-1.67-4.33-2.88-7.41-3.63l-6.13-1.51c-1.64-.38-2.89-.83-3.78-1.37-.88-.53-1.32-1.21-1.32-2.03,0-1.26.46-2.25,1.37-2.97.91-.72,2.22-1.09,3.92-1.09s3.4.39,5.1,1.18c1.7.79,2.77,1.81,3.21,3.07l10.29-4.72c-.69-2.08-1.95-3.9-3.78-5.47-1.82-1.57-4.01-2.8-6.56-3.68-2.55-.88-5.3-1.32-8.26-1.32-5.73,0-10.14,1.32-13.26,3.96-3.11,2.64-4.67,6.39-4.67,11.23,0,3.4,1.3,6.4,3.92,9.01,2.61,2.61,6.18,4.52,10.71,5.71l4.34,1.13c1.57.38,2.81.83,3.73,1.37.91.54,1.37,1.37,1.37,2.5s-.57,2-1.7,2.6c-1.13.6-2.74.9-4.81.9s-4.03-.55-5.66-1.65c-1.64-1.1-2.93-2.41-3.87-3.92l-10.66,4.91c1.13,2.52,2.7,4.64,4.72,6.37,2.01,1.73,4.34,3.05,6.98,3.96,2.64.91,5.47,1.37,8.49,1.37,3.65,0,6.9-.6,9.77-1.79s5.13-2.88,6.79-5.05c1.67-2.17,2.5-4.67,2.5-7.5,0-1.95-.42-3.95-1.27-5.99-.85-2.04-2.2-3.9-4.06-5.57Z"/>
        <path class="cls-2" d="M305.89,292.34c-1.38-3.18-3.38-5.52-5.99-7.03s-5.8-2.26-9.58-2.26-6.71.93-9.39,2.78c-1.66,1.15-3.1,2.63-4.29,4.41v-24.94h-12.46v66.06h12.46v-24.72c0-3.96.87-6.95,2.6-8.96,1.73-2.01,4.2-2.99,7.41-2.93,1.76,0,3.3.39,4.62,1.18,1.32.79,2.36,2.06,3.12,3.82.75,1.76,1.13,4.25,1.13,7.46v24.16h12.46v-26.71c0-5.03-.69-9.14-2.08-12.32Z"/>
      </g>
    </g>
  </g>
</svg>