<?xml version="1.0" encoding="UTF-8"?>
<svg id="Layer_2" data-name="Layer 2" xmlns="http://www.w3.org/2000/svg" viewBox="0 0 424.8 424.8">
  <defs>
    <style>
      .cls-1 {
        fill: #009245;
      }

      .cls-2 {
        fill: #a3d165;
      }
    </style>
  </defs>
  <g id="_Ñëîé_1" data-name="Ñëîé 1">
    <circle class="cls-2" cx="212.4" cy="212.4" r="212.4"/>
    <path class="cls-1" d="M289.26,59.8l5.91,26.17c.51,2.27,3.11,3.34,5.08,2.1l22.68-14.32c4.47-2.82,9.66,2.37,6.84,6.84l-14.32,22.68c-1.24,1.96-.16,4.57,2.1,5.08l26.17,5.91c5.15,1.16,5.15,8.51,0,9.67l-26.17,5.91c-2.27.51-3.34,3.11-2.1,5.08l14.32,22.68c2.82,4.47-2.37,9.66-6.84,6.84l-22.68-14.32c-1.96-1.24-4.57-.16-5.08,2.1l-5.91,26.17c-1.16,5.15-8.51,5.15-9.67,0l-5.91-26.17c-.51-2.27-3.11-3.34-5.08-2.1l-22.68,14.32c-4.47,2.82-9.66-2.37-6.84-6.84l14.32-22.68c1.24-1.96.16-4.57-2.1-5.08l-26.17-5.91c-5.15-1.16-5.15-8.51,0-9.67l26.17-5.91c2.27-.51,3.34-3.11,2.1-5.08l-14.32-22.68c-2.82-4.47,2.37-9.66,6.84-6.84l22.68,14.32c1.96,1.24,4.57.16,5.08-2.1l5.91-26.17c1.16-5.15,8.51-5.15,9.67,0Z"/>
  </g>
</svg>